<svg width="1220" height="869" viewBox="0 0 1220 869" fill="none" xmlns="http://www.w3.org/2000/svg">
<rect x="426" y="509" width="794" height="228" rx="9" fill="#ECFA00"/>
<path fill-rule="evenodd" clip-rule="evenodd" d="M734.345 484.135C733.267 480.71 729.841 476.216 722.41 474.844C714.915 473.461 702.918 475.191 684.918 485.394L685.025 485.695C684.439 485.903 683.894 486.095 683.389 486.273C683.248 486.355 683.106 486.438 682.965 486.521L682.916 486.439C681.909 486.791 681.066 487.077 680.355 487.3C679.216 487.656 678.154 487.935 677.103 488.009C675.923 488.092 674.987 487.903 674.152 487.666C673.846 487.579 673.513 487.473 673.213 487.378L673.041 487.323C672.674 487.207 672.279 487.084 671.811 486.953C671.503 486.867 671.208 486.742 670.932 486.58C651.842 475.378 639.25 473.47 631.487 474.903C624.056 476.275 620.63 480.768 619.551 484.194L607.943 561.079C660.34 538.803 708.815 545.89 746.157 562.364L734.345 484.135ZM723.758 467.54C713.673 465.678 699.533 468.39 680.272 479.494C679.399 479.798 678.708 480.032 678.136 480.211C677.117 480.53 676.734 480.589 676.582 480.599C676.58 480.599 676.577 480.6 676.575 480.6C676.551 480.604 676.5 480.611 676.183 480.521C675.997 480.468 675.799 480.405 675.502 480.311L675.501 480.311L675.284 480.242C674.998 480.151 674.666 480.047 674.285 479.935C654.686 468.511 640.339 465.716 630.139 467.598C619.695 469.526 614.109 476.282 612.351 482.342C612.306 482.5 612.271 482.66 612.246 482.822L599.88 564.727C581.924 573.344 563.619 585.459 545.245 601.817C543.933 602.984 543.619 604.91 544.49 606.434C545.361 607.958 547.18 608.664 548.851 608.127C588.226 595.465 694.028 577.617 800.26 608.161C801.873 608.624 803.596 607.949 804.465 606.512C805.333 605.076 805.13 603.236 803.969 602.023C792.53 590.07 775.448 576.715 754.242 566.158L741.651 482.763C741.626 482.601 741.591 482.441 741.545 482.283C739.788 476.223 734.201 469.467 723.758 467.54ZM788.016 597.191C751.929 566.339 682.427 534.321 604.83 570.601C591.233 576.958 577.349 585.424 563.316 596.393C609.573 585.106 697.542 574.687 788.016 597.191ZM645.631 646.459C645.631 661.284 633.613 673.302 618.788 673.302C603.964 673.302 591.946 661.284 591.946 646.459C591.946 631.634 603.964 619.616 618.788 619.616C633.613 619.616 645.631 631.634 645.631 646.459ZM652.671 651.634C650.176 668.106 635.957 680.73 618.788 680.73C599.861 680.73 584.517 665.387 584.517 646.459C584.517 627.532 599.861 612.188 618.788 612.188C636.241 612.188 650.646 625.233 652.785 642.105C657.648 638.784 663.871 635.826 670.9 634.67C679.635 633.233 689.412 634.621 699.046 641.181C701.584 624.76 715.78 612.188 732.913 612.188C751.84 612.188 767.184 627.532 767.184 646.459C767.184 651.715 766.001 656.695 763.886 661.147C758.385 672.725 746.584 680.73 732.913 680.73C715.325 680.73 700.831 667.481 698.868 650.418C689.429 642.208 680.084 640.687 672.106 642C663.969 643.338 656.979 647.684 652.671 651.634ZM706.119 648.097C706.966 662.159 718.638 673.302 732.913 673.302C743.61 673.302 752.86 667.046 757.176 657.959C758.828 654.483 759.756 650.59 759.756 646.459C759.756 631.634 747.738 619.616 732.913 619.616C718.088 619.616 706.07 631.634 706.07 646.459C706.07 646.627 706.072 646.794 706.075 646.96C706.273 647.153 706.471 647.349 706.67 647.547L706.119 648.097Z" fill="#1646A0"/>
<path d="M722.41 474.844L721.502 479.761L721.502 479.761L722.41 474.844ZM734.345 484.135L739.289 483.389C739.251 483.133 739.192 482.88 739.114 482.633L734.345 484.135ZM684.918 485.394L682.453 481.044C680.343 482.24 679.396 484.777 680.205 487.063L684.918 485.394ZM685.025 485.695L686.694 490.408C687.944 489.965 688.967 489.044 689.538 487.847C690.109 486.65 690.181 485.276 689.738 484.026L685.025 485.695ZM683.389 486.273L681.73 481.556C681.432 481.661 681.145 481.794 680.872 481.953L683.389 486.273ZM682.965 486.521L678.652 489.052C680.05 491.433 683.113 492.231 685.495 490.833L682.965 486.521ZM682.916 486.439L687.229 483.908C686.019 481.848 683.522 480.93 681.267 481.719L682.916 486.439ZM680.355 487.3L681.848 492.072L681.848 492.072L680.355 487.3ZM677.103 488.009L676.752 483.022L676.752 483.022L677.103 488.009ZM674.152 487.666L675.519 482.857L675.519 482.857L674.152 487.666ZM673.213 487.378L674.729 482.613L674.727 482.612L673.213 487.378ZM673.041 487.323L674.555 482.558L674.551 482.557L673.041 487.323ZM671.811 486.953L670.464 491.768L670.464 491.768L671.811 486.953ZM670.932 486.58L673.463 482.267L673.463 482.267L670.932 486.58ZM631.487 474.903L632.395 479.82L632.395 479.82L631.487 474.903ZM619.551 484.194L614.782 482.692C614.704 482.939 614.646 483.191 614.607 483.447L619.551 484.194ZM607.943 561.079L602.999 560.332C602.728 562.124 603.448 563.921 604.88 565.031C606.312 566.141 608.232 566.389 609.899 565.68L607.943 561.079ZM746.157 562.364L744.139 566.939C745.807 567.675 747.744 567.444 749.193 566.337C750.642 565.23 751.373 563.421 751.101 561.618L746.157 562.364ZM680.272 479.494L681.917 484.215C682.213 484.112 682.498 483.982 682.769 483.826L680.272 479.494ZM723.758 467.54L724.665 462.623L724.665 462.623L723.758 467.54ZM678.136 480.211L676.643 475.439L676.643 475.439L678.136 480.211ZM676.582 480.599L676.232 475.612L676.23 475.612L676.582 480.599ZM676.575 480.6L675.845 475.654L675.844 475.654L676.575 480.6ZM676.183 480.521L674.816 485.33L674.816 485.33L676.183 480.521ZM675.502 480.311L677.016 475.545C677.008 475.543 677.001 475.541 676.993 475.538L675.502 480.311ZM675.501 480.311L673.989 485.076C673.996 485.079 674.003 485.081 674.01 485.083L675.501 480.311ZM675.284 480.242L676.797 475.476L676.794 475.475L675.284 480.242ZM674.285 479.935L671.767 484.255C672.115 484.458 672.488 484.619 672.875 484.732L674.285 479.935ZM630.139 467.598L631.046 472.515L631.046 472.515L630.139 467.598ZM612.351 482.342L607.549 480.95L607.549 480.95L612.351 482.342ZM612.246 482.822L617.19 483.568L617.19 483.568L612.246 482.822ZM599.88 564.727L602.043 569.234C603.535 568.518 604.576 567.11 604.824 565.473L599.88 564.727ZM545.245 601.817L541.92 598.083L541.92 598.083L545.245 601.817ZM544.49 606.434L540.149 608.915L540.149 608.916L544.49 606.434ZM548.851 608.127L550.382 612.887L550.382 612.887L548.851 608.127ZM800.26 608.161L798.878 612.966L798.878 612.966L800.26 608.161ZM804.465 606.512L808.744 609.099L808.744 609.099L804.465 606.512ZM803.969 602.023L807.581 598.566L807.581 598.566L803.969 602.023ZM754.242 566.158L749.298 566.905C749.541 568.516 750.555 569.908 752.014 570.634L754.242 566.158ZM741.651 482.763L746.594 482.017L746.594 482.017L741.651 482.763ZM741.545 482.283L746.348 480.891L746.347 480.891L741.545 482.283ZM604.83 570.601L602.712 566.072L602.712 566.072L604.83 570.601ZM788.016 597.191L786.809 602.043C789.059 602.603 791.399 601.542 792.461 599.481C793.523 597.419 793.028 594.898 791.265 593.391L788.016 597.191ZM563.316 596.393L560.236 592.454C558.38 593.905 557.789 596.455 558.816 598.574C559.844 600.694 562.212 601.809 564.501 601.251L563.316 596.393ZM652.671 651.634L649.292 647.949C648.451 648.72 647.899 649.756 647.728 650.885L652.671 651.634ZM652.785 642.105L647.825 642.734C648.044 644.461 649.146 645.95 650.734 646.664C652.322 647.379 654.167 647.216 655.605 646.234L652.785 642.105ZM670.9 634.67L671.711 639.604L671.711 639.604L670.9 634.67ZM699.046 641.181L696.231 645.314C697.65 646.28 699.464 646.451 701.038 645.767C702.612 645.083 703.725 643.641 703.987 641.945L699.046 641.181ZM763.886 661.147L759.37 659.001L759.37 659.001L763.886 661.147ZM698.868 650.418L703.835 649.847C703.693 648.607 703.091 647.465 702.15 646.646L698.868 650.418ZM672.106 642L672.917 646.933L672.917 646.933L672.106 642ZM706.119 648.097L702.584 644.562C701.572 645.574 701.042 646.97 701.128 648.398L706.119 648.097ZM757.176 657.959L752.66 655.814L752.66 655.814L757.176 657.959ZM706.075 646.96L701.075 647.052C701.1 648.37 701.643 649.625 702.588 650.545L706.075 646.96ZM706.67 647.547L710.205 651.083C712.158 649.13 712.158 645.964 710.205 644.012L706.67 647.547ZM721.502 479.761C727.059 480.787 729.037 483.923 729.576 485.637L739.114 482.633C737.497 477.496 732.623 471.645 723.317 469.927L721.502 479.761ZM687.384 489.744C704.883 479.825 715.641 478.68 721.502 479.761L723.317 469.927C714.188 468.242 700.953 470.558 682.453 481.044L687.384 489.744ZM689.738 484.026L689.632 483.725L680.205 487.063L680.312 487.364L689.738 484.026ZM685.047 490.99C685.559 490.81 686.108 490.616 686.694 490.408L683.356 480.982C682.769 481.19 682.23 481.38 681.73 481.556L685.047 490.99ZM685.495 490.833C685.632 490.753 685.769 490.673 685.905 490.594L680.872 481.953C680.726 482.038 680.58 482.123 680.434 482.209L685.495 490.833ZM678.604 488.969L678.652 489.052L687.277 483.99L687.229 483.908L678.604 488.969ZM681.848 492.072C682.641 491.824 683.548 491.515 684.566 491.159L681.267 481.719C680.271 482.067 679.491 482.331 678.861 482.528L681.848 492.072ZM677.453 492.997C679.107 492.881 680.625 492.455 681.848 492.072L678.861 482.528C677.808 482.858 677.2 482.99 676.752 483.022L677.453 492.997ZM672.785 492.476C673.946 492.806 675.495 493.135 677.453 492.997L676.752 483.022C676.529 483.037 676.345 483.027 676.176 483.004C675.999 482.98 675.798 482.936 675.519 482.857L672.785 492.476ZM671.697 492.142C671.982 492.233 672.39 492.363 672.785 492.476L675.519 482.857C675.301 482.795 675.045 482.714 674.729 482.613L671.697 492.142ZM671.527 492.088L671.699 492.143L674.727 482.612L674.555 482.558L671.527 492.088ZM670.464 491.768C670.852 491.877 671.185 491.98 671.531 492.09L674.551 482.557C674.163 482.434 673.706 482.292 673.158 482.138L670.464 491.768ZM668.402 490.892C669.048 491.272 669.742 491.566 670.464 491.768L673.158 482.138C673.265 482.168 673.367 482.211 673.463 482.267L668.402 490.892ZM632.395 479.82C638.47 478.699 649.795 479.974 668.402 490.892L673.463 482.267C653.889 470.782 640.03 468.242 630.58 469.986L632.395 479.82ZM624.321 485.695C624.86 483.982 626.838 480.846 632.395 479.82L630.58 469.986C621.273 471.704 616.4 477.555 614.782 482.692L624.321 485.695ZM612.887 561.825L624.495 484.94L614.607 483.447L602.999 560.332L612.887 561.825ZM748.175 557.79C709.833 540.874 659.899 533.558 605.987 556.477L609.899 565.68C660.782 544.049 707.797 550.906 744.139 566.939L748.175 557.79ZM729.401 484.881L741.213 563.111L751.101 561.618L739.289 483.389L729.401 484.881ZM682.769 483.826C701.539 473.005 714.426 470.901 722.85 472.457L724.665 462.623C712.92 460.455 697.527 463.775 677.775 475.162L682.769 483.826ZM679.629 484.983C680.28 484.779 681.032 484.524 681.917 484.215L678.626 474.772C677.766 475.072 677.136 475.285 676.643 475.439L679.629 484.983ZM676.932 485.587C677.695 485.533 678.54 485.324 679.629 484.983L676.643 475.439C676.211 475.574 675.99 475.63 675.909 475.649C675.823 475.669 675.962 475.631 676.232 475.612L676.932 485.587ZM677.305 485.547C677.316 485.545 677.271 485.552 677.219 485.558C677.16 485.566 677.06 485.578 676.934 485.587L676.23 475.612C676.102 475.621 675.999 475.633 675.938 475.641C675.907 475.645 675.882 475.648 675.868 475.65C675.861 475.651 675.855 475.652 675.851 475.653C675.849 475.653 675.848 475.653 675.847 475.654C675.846 475.654 675.846 475.654 675.846 475.654C675.845 475.654 675.845 475.654 675.845 475.654L677.305 485.547ZM674.816 485.33C675.05 485.397 676.08 485.727 677.305 485.547L675.844 475.654C675.839 475.655 675.881 475.648 675.932 475.642C675.989 475.634 676.059 475.626 676.14 475.62C676.308 475.605 676.471 475.6 676.63 475.603C676.929 475.608 677.162 475.64 677.289 475.66C677.518 475.697 677.643 475.738 677.55 475.711L674.816 485.33ZM673.988 485.076C674.261 485.163 674.541 485.252 674.816 485.33L677.55 475.711C677.454 475.684 677.337 475.648 677.016 475.545L673.988 485.076ZM674.01 485.083L674.01 485.083L676.993 475.538L676.993 475.538L674.01 485.083ZM673.772 485.008L673.989 485.076L677.014 475.545L676.797 475.476L673.772 485.008ZM672.875 484.732C673.208 484.83 673.502 484.922 673.774 485.008L676.794 475.475C676.494 475.38 676.124 475.264 675.694 475.138L672.875 484.732ZM631.046 472.515C639.568 470.942 652.654 473.114 671.767 484.255L676.802 475.615C656.718 463.909 641.109 460.489 629.231 462.681L631.046 472.515ZM617.154 483.735C618.402 479.43 622.525 474.088 631.046 472.515L629.231 462.681C616.865 464.964 609.815 473.134 607.549 480.95L617.154 483.735ZM617.19 483.568C617.182 483.625 617.169 483.68 617.154 483.734L607.549 480.95C607.442 481.319 607.36 481.695 607.302 482.076L617.19 483.568ZM604.824 565.473L617.19 483.568L607.302 482.076L594.936 563.98L604.824 565.473ZM548.569 605.552C566.626 589.477 584.544 577.633 602.043 569.234L597.716 560.219C579.303 569.056 560.612 581.441 541.92 598.083L548.569 605.552ZM548.831 603.953C549.132 604.481 549.023 605.147 548.569 605.552L541.92 598.083C538.844 600.821 538.105 605.34 540.149 608.915L548.831 603.953ZM547.321 603.367C547.899 603.181 548.529 603.425 548.831 603.953L540.149 608.916C542.193 612.491 546.461 614.148 550.382 612.887L547.321 603.367ZM801.641 603.355C694.239 572.476 587.4 590.478 547.321 603.367L550.382 612.887C589.052 600.451 693.816 582.759 798.878 612.966L801.641 603.355ZM800.185 603.926C800.486 603.429 801.083 603.195 801.641 603.355L798.878 612.966C802.663 614.054 806.707 612.469 808.744 609.099L800.185 603.926ZM800.357 605.48C799.955 605.06 799.885 604.423 800.185 603.926L808.744 609.099C810.781 605.728 810.304 601.411 807.581 598.566L800.357 605.48ZM752.014 570.634C772.701 580.933 789.315 593.943 800.357 605.48L807.581 598.566C795.744 586.198 778.195 572.497 756.47 561.682L752.014 570.634ZM736.707 483.51L749.298 566.905L759.186 565.412L746.594 482.017L736.707 483.51ZM736.743 483.676C736.727 483.621 736.715 483.566 736.707 483.51L746.594 482.017C746.537 481.636 746.455 481.26 746.348 480.891L736.743 483.676ZM722.85 472.457C731.371 474.029 735.495 479.371 736.743 483.676L746.347 480.891C744.081 473.075 737.031 464.905 724.665 462.623L722.85 472.457ZM606.948 575.13C682.149 539.971 749.572 570.902 784.767 600.992L791.265 593.391C754.287 561.776 682.704 528.672 602.712 566.072L606.948 575.13ZM566.395 600.333C580.149 589.582 593.713 581.318 606.948 575.13L602.712 566.072C588.753 572.598 574.549 581.267 560.236 592.454L566.395 600.333ZM789.223 592.339C697.758 569.589 608.939 580.114 562.13 591.536L564.501 601.251C610.207 590.098 697.325 579.786 786.809 602.043L789.223 592.339ZM618.788 678.302C636.375 678.302 650.631 664.046 650.631 646.459H640.631C640.631 658.523 630.852 668.302 618.788 668.302V678.302ZM586.946 646.459C586.946 664.046 601.202 678.302 618.788 678.302V668.302C606.725 668.302 596.946 658.523 596.946 646.459H586.946ZM618.788 614.616C601.202 614.616 586.946 628.873 586.946 646.459H596.946C596.946 634.396 606.725 624.616 618.788 624.616V614.616ZM650.631 646.459C650.631 628.873 636.375 614.616 618.788 614.616V624.616C630.852 624.616 640.631 634.396 640.631 646.459H650.631ZM618.788 685.73C638.466 685.73 654.755 671.262 657.615 652.383L647.728 650.885C645.598 664.95 633.447 675.73 618.788 675.73V685.73ZM579.517 646.459C579.517 668.148 597.1 685.73 618.788 685.73V675.73C602.622 675.73 589.517 662.625 589.517 646.459H579.517ZM618.788 607.188C597.1 607.188 579.517 624.77 579.517 646.459H589.517C589.517 630.293 602.622 617.188 618.788 617.188V607.188ZM657.746 641.475C655.293 622.138 638.791 607.188 618.788 607.188V617.188C633.691 617.188 645.998 628.329 647.825 642.734L657.746 641.475ZM655.605 646.234C659.998 643.234 665.547 640.618 671.711 639.604L670.088 629.736C662.196 631.035 655.298 634.334 649.966 637.975L655.605 646.234ZM671.711 639.604C679.267 638.361 687.73 639.524 696.231 645.314L701.86 637.048C691.095 629.718 680.004 628.105 670.088 629.736L671.711 639.604ZM703.987 641.945C706.155 627.924 718.285 617.188 732.913 617.188V607.188C713.276 607.188 697.014 621.596 694.104 640.417L703.987 641.945ZM732.913 617.188C749.079 617.188 762.184 630.293 762.184 646.459H772.184C772.184 624.77 754.602 607.188 732.913 607.188V617.188ZM762.184 646.459C762.184 650.958 761.173 655.206 759.37 659.001L768.402 663.292C770.829 658.184 772.184 652.473 772.184 646.459H762.184ZM759.37 659.001C754.666 668.902 744.582 675.73 732.913 675.73V685.73C748.586 685.73 762.105 676.548 768.402 663.292L759.37 659.001ZM732.913 675.73C717.894 675.73 705.511 664.415 703.835 649.847L693.901 650.99C696.151 670.547 712.755 685.73 732.913 685.73V675.73ZM702.15 646.646C691.544 637.421 680.685 635.521 671.294 637.066L672.917 646.933C679.484 645.853 687.314 646.995 695.587 654.191L702.15 646.646ZM671.294 637.066C661.977 638.599 654.132 643.512 649.292 647.949L656.05 655.319C659.827 651.857 665.96 648.078 672.917 646.933L671.294 637.066ZM732.913 668.302C721.299 668.302 711.799 659.235 711.11 647.797L701.128 648.398C702.133 665.084 715.977 678.302 732.913 678.302V668.302ZM752.66 655.814C749.142 663.22 741.61 668.302 732.913 668.302V678.302C745.609 678.302 756.578 670.871 761.693 660.105L752.66 655.814ZM754.756 646.459C754.756 649.832 754 652.994 752.66 655.814L761.693 660.105C763.656 655.972 764.756 651.347 764.756 646.459H754.756ZM732.913 624.616C744.976 624.616 754.756 634.396 754.756 646.459H764.756C764.756 628.873 750.499 614.616 732.913 614.616V624.616ZM711.07 646.459C711.07 634.396 720.849 624.616 732.913 624.616V614.616C715.327 614.616 701.07 628.873 701.07 646.459H711.07ZM711.074 646.869C711.071 646.733 711.07 646.596 711.07 646.459H701.07C701.07 646.657 701.072 646.855 701.075 647.052L711.074 646.869ZM702.588 650.545C702.77 650.722 702.952 650.901 703.134 651.083L710.205 644.012C709.991 643.797 709.776 643.585 709.561 643.376L702.588 650.545ZM703.134 644.012L702.584 644.562L709.655 651.633L710.205 651.083L703.134 644.012Z" fill="#1646A0"/>
<mask id="path-4-outside-1_32_69" maskUnits="userSpaceOnUse" x="3" y="156" width="847" height="247" fill="black">
<rect fill="white" x="3" y="156" width="847" height="247"/>
<path d="M74.1675 394.131C62.7902 394.131 52.3002 391.209 42.6974 385.364C33.199 379.518 25.5793 371.742 19.8385 362.035C14.2021 352.223 11.3839 341.472 11.3839 329.782V315.065C11.3839 313.917 11.9058 313.343 12.9496 313.343H48.9601C49.7951 313.343 50.2126 313.917 50.2126 315.065V329.782C50.2126 336.775 52.5611 342.829 57.2582 347.944C61.9552 352.954 67.5916 355.459 74.1675 355.459C80.8477 355.459 86.5363 352.902 91.2333 347.787C95.9303 342.568 98.2789 336.567 98.2789 329.782C98.2789 321.954 93.1643 315.117 82.9352 309.272C81.2652 308.228 79.0732 306.975 76.3594 305.514C73.7499 303.948 70.6186 302.174 66.9654 300.191C63.3121 298.208 59.7632 296.277 56.3188 294.398C52.8743 292.415 49.5342 290.536 46.2984 288.761C34.6081 281.872 25.8925 273.261 20.1517 262.928C14.5152 252.49 11.697 240.8 11.697 227.857C11.697 215.958 14.6196 205.207 20.4648 195.604C26.31 186.105 33.9296 178.59 43.3237 173.058C52.8221 167.422 63.1034 164.603 74.1675 164.603C85.5447 164.603 95.9825 167.422 105.481 173.058C114.979 178.799 122.547 186.418 128.183 195.917C133.924 205.415 136.794 216.062 136.794 227.857V254.16C136.794 254.995 136.377 255.413 135.542 255.413H99.5314C98.6964 255.413 98.2789 254.995 98.2789 254.16L97.9657 227.857C97.9657 220.341 95.6172 214.235 90.9202 209.538C86.2232 204.841 80.6389 202.493 74.1675 202.493C67.5916 202.493 61.9552 204.998 57.2582 210.008C52.5611 215.018 50.2126 220.968 50.2126 227.857C50.2126 234.85 51.6739 240.695 54.5965 245.392C57.6235 250.089 63.1034 254.578 71.0361 258.857C71.8711 259.275 73.8021 260.318 76.8291 261.988C79.8561 263.658 83.1962 265.537 86.8494 267.625C90.607 269.608 93.9993 271.435 97.0263 273.105C100.053 274.67 101.88 275.61 102.506 275.923C113.153 281.872 121.555 289.179 127.714 297.842C133.976 306.506 137.108 317.152 137.108 329.782C137.108 341.994 134.289 352.954 128.653 362.661C122.912 372.368 115.293 380.04 105.794 385.677C96.2957 391.313 85.7535 394.131 74.1675 394.131ZM264.24 391H160.593C159.758 391 159.34 390.478 159.34 389.434L159.653 169.144C159.653 168.309 160.071 167.891 160.906 167.891H263.927C264.762 167.891 265.18 168.413 265.18 169.457V205.311C265.18 206.146 264.762 206.563 263.927 206.563H198.169V256.665H263.927C264.762 256.665 265.18 257.083 265.18 257.918L265.493 294.241C265.493 295.076 265.075 295.494 264.24 295.494H198.169V351.545H264.24C265.075 351.545 265.493 352.067 265.493 353.111V389.747C265.493 390.582 265.075 391 264.24 391ZM353.014 394.131C341.428 394.131 330.834 391.209 321.231 385.364C311.733 379.518 304.165 371.69 298.529 361.878C292.997 351.963 290.231 340.951 290.231 328.843L290.544 228.796C290.544 216.897 293.258 206.146 298.685 196.543C304.113 186.836 311.576 179.06 321.074 173.215C330.677 167.265 341.324 164.29 353.014 164.29C364.913 164.29 375.508 167.161 384.797 172.901C394.191 178.642 401.654 186.418 407.187 196.23C412.823 205.937 415.641 216.793 415.641 228.796V243.513C415.641 244.348 415.224 244.766 414.389 244.766H378.378C377.543 244.766 377.126 244.348 377.126 243.513V228.796C377.126 221.698 374.829 215.592 370.237 210.478C365.644 205.363 359.903 202.806 353.014 202.806C345.395 202.806 339.549 205.415 335.479 210.634C331.408 215.853 329.372 221.907 329.372 228.796V328.843C329.372 336.671 331.669 343.09 336.261 348.101C340.854 353.006 346.438 355.459 353.014 355.459C359.903 355.459 365.644 352.745 370.237 347.318C374.829 341.786 377.126 335.627 377.126 328.843V313.969C377.126 313.134 377.543 312.716 378.378 312.716H414.702C415.537 312.716 415.954 313.134 415.954 313.969V328.843C415.954 340.846 413.136 351.806 407.5 361.722C401.759 371.533 394.191 379.414 384.797 385.364C375.403 391.209 364.809 394.131 353.014 394.131ZM476.859 391H440.535C439.7 391 439.283 390.478 439.283 389.434L439.909 169.144C439.909 168.309 440.327 167.891 441.162 167.891H505.981C517.567 167.891 528.213 170.71 537.92 176.346C547.628 181.982 555.352 189.55 561.092 199.048C566.938 208.547 569.86 219.298 569.86 231.301C569.86 239.13 568.66 246.227 566.259 252.594C563.858 258.961 561.04 264.337 557.804 268.721C554.673 273.105 551.803 276.34 549.193 278.428C560.779 291.267 566.572 306.349 566.572 323.676L566.885 389.434C566.885 390.478 566.363 391 565.32 391H528.996C528.161 391 527.743 390.687 527.743 390.061V323.676C527.743 315.952 525.03 309.272 519.602 303.635C514.174 297.999 507.494 295.181 499.561 295.181H478.425L478.112 389.434C478.112 390.478 477.694 391 476.859 391ZM505.981 206.25H478.425V256.665H505.981C512.556 256.665 518.402 254.212 523.516 249.306C528.735 244.401 531.345 238.399 531.345 231.301C531.345 224.517 528.839 218.671 523.829 213.766C518.819 208.755 512.87 206.25 505.981 206.25ZM698.872 391H595.224C594.389 391 593.972 390.478 593.972 389.434L594.285 169.144C594.285 168.309 594.702 167.891 595.537 167.891H698.559C699.394 167.891 699.811 168.413 699.811 169.457V205.311C699.811 206.146 699.394 206.563 698.559 206.563H632.8V256.665H698.559C699.394 256.665 699.811 257.083 699.811 257.918L700.124 294.241C700.124 295.076 699.707 295.494 698.872 295.494H632.8V351.545H698.872C699.707 351.545 700.124 352.067 700.124 353.111V389.747C700.124 390.582 699.707 391 698.872 391ZM797.04 391H760.872C759.933 391 759.463 390.478 759.463 389.434V206.563H717.816C716.773 206.563 716.251 206.042 716.251 204.998L716.564 169.144C716.564 168.309 716.981 167.891 717.816 167.891H839.626C840.774 167.891 841.348 168.309 841.348 169.144V204.998C841.348 206.042 840.931 206.563 840.096 206.563H797.979L798.292 389.434C798.292 390.478 797.875 391 797.04 391Z"/>
</mask>
<path d="M74.1675 394.131C62.7902 394.131 52.3002 391.209 42.6974 385.364C33.199 379.518 25.5793 371.742 19.8385 362.035C14.2021 352.223 11.3839 341.472 11.3839 329.782V315.065C11.3839 313.917 11.9058 313.343 12.9496 313.343H48.9601C49.7951 313.343 50.2126 313.917 50.2126 315.065V329.782C50.2126 336.775 52.5611 342.829 57.2582 347.944C61.9552 352.954 67.5916 355.459 74.1675 355.459C80.8477 355.459 86.5363 352.902 91.2333 347.787C95.9303 342.568 98.2789 336.567 98.2789 329.782C98.2789 321.954 93.1643 315.117 82.9352 309.272C81.2652 308.228 79.0732 306.975 76.3594 305.514C73.7499 303.948 70.6186 302.174 66.9654 300.191C63.3121 298.208 59.7632 296.277 56.3188 294.398C52.8743 292.415 49.5342 290.536 46.2984 288.761C34.6081 281.872 25.8925 273.261 20.1517 262.928C14.5152 252.49 11.697 240.8 11.697 227.857C11.697 215.958 14.6196 205.207 20.4648 195.604C26.31 186.105 33.9296 178.59 43.3237 173.058C52.8221 167.422 63.1034 164.603 74.1675 164.603C85.5447 164.603 95.9825 167.422 105.481 173.058C114.979 178.799 122.547 186.418 128.183 195.917C133.924 205.415 136.794 216.062 136.794 227.857V254.16C136.794 254.995 136.377 255.413 135.542 255.413H99.5314C98.6964 255.413 98.2789 254.995 98.2789 254.16L97.9657 227.857C97.9657 220.341 95.6172 214.235 90.9202 209.538C86.2232 204.841 80.6389 202.493 74.1675 202.493C67.5916 202.493 61.9552 204.998 57.2582 210.008C52.5611 215.018 50.2126 220.968 50.2126 227.857C50.2126 234.85 51.6739 240.695 54.5965 245.392C57.6235 250.089 63.1034 254.578 71.0361 258.857C71.8711 259.275 73.8021 260.318 76.8291 261.988C79.8561 263.658 83.1962 265.537 86.8494 267.625C90.607 269.608 93.9993 271.435 97.0263 273.105C100.053 274.67 101.88 275.61 102.506 275.923C113.153 281.872 121.555 289.179 127.714 297.842C133.976 306.506 137.108 317.152 137.108 329.782C137.108 341.994 134.289 352.954 128.653 362.661C122.912 372.368 115.293 380.04 105.794 385.677C96.2957 391.313 85.7535 394.131 74.1675 394.131ZM264.24 391H160.593C159.758 391 159.34 390.478 159.34 389.434L159.653 169.144C159.653 168.309 160.071 167.891 160.906 167.891H263.927C264.762 167.891 265.18 168.413 265.18 169.457V205.311C265.18 206.146 264.762 206.563 263.927 206.563H198.169V256.665H263.927C264.762 256.665 265.18 257.083 265.18 257.918L265.493 294.241C265.493 295.076 265.075 295.494 264.24 295.494H198.169V351.545H264.24C265.075 351.545 265.493 352.067 265.493 353.111V389.747C265.493 390.582 265.075 391 264.24 391ZM353.014 394.131C341.428 394.131 330.834 391.209 321.231 385.364C311.733 379.518 304.165 371.69 298.529 361.878C292.997 351.963 290.231 340.951 290.231 328.843L290.544 228.796C290.544 216.897 293.258 206.146 298.685 196.543C304.113 186.836 311.576 179.06 321.074 173.215C330.677 167.265 341.324 164.29 353.014 164.29C364.913 164.29 375.508 167.161 384.797 172.901C394.191 178.642 401.654 186.418 407.187 196.23C412.823 205.937 415.641 216.793 415.641 228.796V243.513C415.641 244.348 415.224 244.766 414.389 244.766H378.378C377.543 244.766 377.126 244.348 377.126 243.513V228.796C377.126 221.698 374.829 215.592 370.237 210.478C365.644 205.363 359.903 202.806 353.014 202.806C345.395 202.806 339.549 205.415 335.479 210.634C331.408 215.853 329.372 221.907 329.372 228.796V328.843C329.372 336.671 331.669 343.09 336.261 348.101C340.854 353.006 346.438 355.459 353.014 355.459C359.903 355.459 365.644 352.745 370.237 347.318C374.829 341.786 377.126 335.627 377.126 328.843V313.969C377.126 313.134 377.543 312.716 378.378 312.716H414.702C415.537 312.716 415.954 313.134 415.954 313.969V328.843C415.954 340.846 413.136 351.806 407.5 361.722C401.759 371.533 394.191 379.414 384.797 385.364C375.403 391.209 364.809 394.131 353.014 394.131ZM476.859 391H440.535C439.7 391 439.283 390.478 439.283 389.434L439.909 169.144C439.909 168.309 440.327 167.891 441.162 167.891H505.981C517.567 167.891 528.213 170.71 537.92 176.346C547.628 181.982 555.352 189.55 561.092 199.048C566.938 208.547 569.86 219.298 569.86 231.301C569.86 239.13 568.66 246.227 566.259 252.594C563.858 258.961 561.04 264.337 557.804 268.721C554.673 273.105 551.803 276.34 549.193 278.428C560.779 291.267 566.572 306.349 566.572 323.676L566.885 389.434C566.885 390.478 566.363 391 565.32 391H528.996C528.161 391 527.743 390.687 527.743 390.061V323.676C527.743 315.952 525.03 309.272 519.602 303.635C514.174 297.999 507.494 295.181 499.561 295.181H478.425L478.112 389.434C478.112 390.478 477.694 391 476.859 391ZM505.981 206.25H478.425V256.665H505.981C512.556 256.665 518.402 254.212 523.516 249.306C528.735 244.401 531.345 238.399 531.345 231.301C531.345 224.517 528.839 218.671 523.829 213.766C518.819 208.755 512.87 206.25 505.981 206.25ZM698.872 391H595.224C594.389 391 593.972 390.478 593.972 389.434L594.285 169.144C594.285 168.309 594.702 167.891 595.537 167.891H698.559C699.394 167.891 699.811 168.413 699.811 169.457V205.311C699.811 206.146 699.394 206.563 698.559 206.563H632.8V256.665H698.559C699.394 256.665 699.811 257.083 699.811 257.918L700.124 294.241C700.124 295.076 699.707 295.494 698.872 295.494H632.8V351.545H698.872C699.707 351.545 700.124 352.067 700.124 353.111V389.747C700.124 390.582 699.707 391 698.872 391ZM797.04 391H760.872C759.933 391 759.463 390.478 759.463 389.434V206.563H717.816C716.773 206.563 716.251 206.042 716.251 204.998L716.564 169.144C716.564 168.309 716.981 167.891 717.816 167.891H839.626C840.774 167.891 841.348 168.309 841.348 169.144V204.998C841.348 206.042 840.931 206.563 840.096 206.563H797.979L798.292 389.434C798.292 390.478 797.875 391 797.04 391Z" fill="white"/>
<path d="M42.6974 385.364L38.5046 392.177L38.5212 392.187L38.5378 392.197L42.6974 385.364ZM19.8385 362.035L12.9017 366.02L12.9269 366.064L12.9526 366.107L19.8385 362.035ZM57.2582 347.944L51.3659 353.355L51.3937 353.385L51.4219 353.415L57.2582 347.944ZM91.2333 347.787L97.1256 353.199L97.1528 353.169L97.1797 353.139L91.2333 347.787ZM82.9352 309.272L78.6952 316.056L78.8291 316.139L78.9661 316.218L82.9352 309.272ZM76.3594 305.514L72.2434 312.374L72.4029 312.47L72.5666 312.558L76.3594 305.514ZM56.3188 294.398L52.327 301.331L52.407 301.377L52.4879 301.421L56.3188 294.398ZM46.2984 288.761L42.2369 295.654L42.3434 295.716L42.4518 295.776L46.2984 288.761ZM20.1517 262.928L13.1124 266.729L13.1352 266.771L13.1584 266.813L20.1517 262.928ZM20.4648 195.604L13.6515 191.411L13.6413 191.428L13.6312 191.444L20.4648 195.604ZM43.3237 173.058L47.3832 179.952L47.3947 179.945L47.4062 179.938L43.3237 173.058ZM105.481 173.058L109.619 166.211L109.591 166.195L109.564 166.178L105.481 173.058ZM128.183 195.917L121.303 199.999L121.32 200.027L121.337 200.055L128.183 195.917ZM98.2789 254.16H106.279V254.112L106.278 254.065L98.2789 254.16ZM97.9657 227.857H89.9657V227.904L89.9663 227.952L97.9657 227.857ZM54.5965 245.392L47.8041 249.619L47.8376 249.673L47.872 249.726L54.5965 245.392ZM71.0361 258.857L67.2378 265.898L67.3472 265.957L67.4584 266.012L71.0361 258.857ZM76.8291 261.988L80.6937 254.984L76.8291 261.988ZM86.8494 267.625L82.8803 274.571L82.9968 274.637L83.1154 274.7L86.8494 267.625ZM97.0263 273.105L93.1617 280.109L93.2556 280.161L93.3509 280.21L97.0263 273.105ZM102.506 275.923L106.409 268.939L106.248 268.85L106.084 268.767L102.506 275.923ZM127.714 297.842L121.193 302.477L121.212 302.503L121.23 302.529L127.714 297.842ZM128.653 362.661L135.539 366.734L135.555 366.706L135.571 366.678L128.653 362.661ZM74.1675 386.131C64.2388 386.131 55.1906 383.603 46.857 378.53L38.5378 392.197C49.4098 398.815 61.3416 402.131 74.1675 402.131V386.131ZM46.8902 378.55C38.5117 373.394 31.8113 366.564 26.7245 357.963L12.9526 366.107C19.3474 376.92 27.8863 385.642 38.5046 392.177L46.8902 378.55ZM26.7754 358.05C21.8593 349.492 19.3839 340.122 19.3839 329.782H3.38389C3.38389 342.822 6.54495 354.955 12.9017 366.02L26.7754 358.05ZM19.3839 329.782V315.065H3.38389V329.782H19.3839ZM19.3839 315.065C19.3839 315.545 19.291 317.399 17.6948 319.154C15.9671 321.055 13.8677 321.343 12.9496 321.343V305.343C10.9876 305.343 8.10539 305.917 5.85579 308.392C3.73768 310.722 3.38389 313.436 3.38389 315.065H19.3839ZM12.9496 321.343H48.9601V305.343H12.9496V321.343ZM48.9601 321.343C48.2577 321.343 47.2618 321.221 46.1748 320.723C45.0438 320.204 44.1075 319.411 43.4296 318.478C42.1987 316.786 42.2126 315.222 42.2126 315.065H58.2126C58.2126 313.759 58.0178 311.334 56.3694 309.068C54.3767 306.328 51.4236 305.343 48.9601 305.343V321.343ZM42.2126 315.065V329.782H58.2126V315.065H42.2126ZM42.2126 329.782C42.2126 338.764 45.3027 346.753 51.3659 353.355L63.1504 342.533C59.8196 338.906 58.2126 334.787 58.2126 329.782H42.2126ZM51.4219 353.415C57.5557 359.958 65.2722 363.459 74.1675 363.459V347.459C69.911 347.459 66.3547 345.95 63.0945 342.472L51.4219 353.415ZM74.1675 363.459C83.1857 363.459 90.9812 359.889 97.1256 353.199L85.3411 342.376C82.0914 345.915 78.5096 347.459 74.1675 347.459V363.459ZM97.1797 353.139C103.148 346.508 106.279 338.618 106.279 329.782H90.2789C90.2789 334.516 88.7126 338.629 85.287 342.436L97.1797 353.139ZM106.279 329.782C106.279 317.794 98.2569 308.813 86.9043 302.326L78.9661 316.218C88.0717 321.421 90.2789 326.114 90.2789 329.782H106.279ZM87.1752 302.488C85.3016 301.317 82.9435 299.973 80.1522 298.47L72.5666 312.558C75.2029 313.977 77.2288 315.139 78.6952 316.056L87.1752 302.488ZM80.4754 298.654C77.7393 297.013 74.5026 295.18 70.7821 293.16L63.1486 307.222C66.7346 309.168 69.7606 310.884 72.2434 312.374L80.4754 298.654ZM70.7821 293.16C67.1333 291.179 63.5891 289.251 60.1496 287.375L52.4879 301.421C55.9374 303.303 59.491 305.236 63.1486 307.222L70.7821 293.16ZM60.3105 287.465C56.8216 285.456 53.433 283.55 50.1451 281.747L42.4518 295.776C45.6353 297.522 48.927 299.373 52.327 301.331L60.3105 287.465ZM50.36 281.869C39.7127 275.595 32.0967 267.956 27.1449 259.043L13.1584 266.813C19.6883 278.567 29.5034 288.15 42.2369 295.654L50.36 281.869ZM27.1909 259.127C22.2414 249.961 19.697 239.596 19.697 227.857H3.69702C3.69702 242.003 6.78911 255.019 13.1124 266.729L27.1909 259.127ZM19.697 227.857C19.697 217.335 22.2613 208.039 27.2984 199.763L13.6312 191.444C6.97791 202.375 3.69702 214.58 3.69702 227.857H19.697ZM27.2781 199.797C32.4557 191.383 39.1402 184.806 47.3832 179.952L39.2642 166.165C28.719 172.374 20.1643 180.828 13.6515 191.411L27.2781 199.797ZM47.4062 179.938C55.6668 175.036 64.5375 172.603 74.1675 172.603V156.603C61.6692 156.603 49.9774 159.807 39.2411 166.178L47.4062 179.938ZM74.1675 172.603C84.1533 172.603 93.1739 175.057 101.398 179.938L109.564 166.178C98.7911 159.786 86.9361 156.603 74.1675 156.603V172.603ZM101.343 179.905C109.719 184.967 116.343 191.64 121.303 199.999L135.063 191.834C128.751 181.197 120.239 172.63 109.619 166.211L101.343 179.905ZM121.337 200.055C126.275 208.226 128.794 217.425 128.794 227.857H144.794C144.794 214.698 141.573 202.605 135.03 191.779L121.337 200.055ZM128.794 227.857V254.16H144.794V227.857H128.794ZM128.794 254.16C128.794 253.344 129.004 251.263 130.824 249.443C132.645 247.622 134.726 247.413 135.542 247.413V263.413C137.193 263.413 139.9 262.994 142.138 260.756C144.376 258.518 144.794 255.811 144.794 254.16H128.794ZM135.542 247.413H99.5314V263.413H135.542V247.413ZM99.5314 247.413C100.347 247.413 102.428 247.622 104.249 249.443C106.07 251.263 106.279 253.344 106.279 254.16H90.2789C90.2789 255.811 90.6969 258.518 92.9351 260.756C95.1733 262.994 97.8807 263.413 99.5314 263.413V247.413ZM106.278 254.065L105.965 227.761L89.9663 227.952L90.2794 254.255L106.278 254.065ZM105.966 227.857C105.966 218.523 102.976 210.281 96.577 203.881L85.2633 215.195C88.2581 218.19 89.9657 222.159 89.9657 227.857H105.966ZM96.577 203.881C90.4241 197.729 82.8226 194.493 74.1675 194.493V210.493C78.4552 210.493 82.0222 211.954 85.2633 215.195L96.577 203.881ZM74.1675 194.493C65.2722 194.493 57.5557 197.994 51.4219 204.536L63.0945 215.48C66.3547 212.002 69.911 210.493 74.1675 210.493V194.493ZM51.4219 204.536C45.3299 211.035 42.2126 218.942 42.2126 227.857H58.2126C58.2126 222.993 59.7924 219.002 63.0945 215.48L51.4219 204.536ZM42.2126 227.857C42.2126 235.953 43.9084 243.358 47.8041 249.619L61.389 241.166C59.4395 238.033 58.2126 233.747 58.2126 227.857H42.2126ZM47.872 249.726C51.9476 256.05 58.7692 261.329 67.2378 265.898L74.8344 251.816C67.4375 247.826 63.2994 244.128 61.3211 241.059L47.872 249.726ZM67.4584 266.012C68.1176 266.342 69.8921 267.298 72.9645 268.993L80.6937 254.984C77.7122 253.339 75.6247 252.207 74.6138 251.702L67.4584 266.012ZM72.9645 268.993C75.95 270.64 79.2546 272.499 82.8803 274.571L90.8185 260.679C87.1377 258.576 83.7622 256.677 80.6937 254.984L72.9645 268.993ZM83.1154 274.7C86.8387 276.665 90.1865 278.468 93.1617 280.109L100.891 266.1C97.8122 264.401 94.3754 262.551 90.5835 260.55L83.1154 274.7ZM93.3509 280.21C96.3535 281.763 98.2406 282.734 98.9285 283.078L106.084 268.767C105.519 268.485 103.753 267.577 100.702 265.999L93.3509 280.21ZM98.6036 282.906C108.367 288.362 115.817 294.914 121.193 302.477L134.234 293.207C127.293 283.443 117.939 275.383 106.409 268.939L98.6036 282.906ZM121.23 302.529C126.338 309.594 129.108 318.521 129.108 329.782H145.108C145.108 315.784 141.615 303.417 134.197 293.156L121.23 302.529ZM129.108 329.782C129.108 340.711 126.601 350.263 121.735 358.644L135.571 366.678C141.978 355.645 145.108 343.277 145.108 329.782H129.108ZM121.767 358.589C116.695 367.165 110.029 373.861 101.712 378.797L109.877 392.557C120.556 386.22 129.129 377.572 135.539 366.734L121.767 358.589ZM101.712 378.797C93.5103 383.663 84.3901 386.131 74.1675 386.131V402.131C87.1168 402.131 99.081 398.963 109.877 392.557L101.712 378.797ZM159.34 389.434L151.34 389.423V389.434H159.34ZM159.653 169.144L167.653 169.155V169.144H159.653ZM198.169 206.563V198.563H190.169V206.563H198.169ZM198.169 256.665H190.169V264.665H198.169V256.665ZM265.18 257.918H257.18V257.952L257.18 257.987L265.18 257.918ZM265.493 294.241H273.493V294.207L273.493 294.172L265.493 294.241ZM198.169 295.494V287.494H190.169V295.494H198.169ZM198.169 351.545H190.169V359.545H198.169V351.545ZM264.24 383H160.593V399H264.24V383ZM160.593 383C161.941 383 164.219 383.51 165.9 385.611C167.309 387.371 167.34 389.101 167.34 389.434H151.34C151.34 390.811 151.581 393.324 153.406 395.606C155.505 398.229 158.41 399 160.593 399V383ZM167.34 389.446L167.653 169.155L151.653 169.132L151.34 389.423L167.34 389.446ZM167.653 169.144C167.653 169.959 167.444 172.041 165.623 173.861C163.803 175.682 161.721 175.891 160.906 175.891V159.891C159.255 159.891 156.548 160.309 154.31 162.548C152.071 164.786 151.653 167.493 151.653 169.144H167.653ZM160.906 175.891H263.927V159.891H160.906V175.891ZM263.927 175.891C262.579 175.891 260.301 175.382 258.62 173.28C257.211 171.52 257.18 169.79 257.18 169.457H273.18C273.18 168.08 272.939 165.567 271.114 163.285C269.015 160.662 266.11 159.891 263.927 159.891V175.891ZM257.18 169.457V205.311H273.18V169.457H257.18ZM257.18 205.311C257.18 204.495 257.389 202.414 259.21 200.593C261.03 198.773 263.112 198.563 263.927 198.563V214.563C265.578 214.563 268.285 214.145 270.524 211.907C272.762 209.669 273.18 206.962 273.18 205.311H257.18ZM263.927 198.563H198.169V214.563H263.927V198.563ZM190.169 206.563V256.665H206.169V206.563H190.169ZM198.169 264.665H263.927V248.665H198.169V264.665ZM263.927 264.665C263.112 264.665 261.03 264.456 259.21 262.635C257.389 260.814 257.18 258.733 257.18 257.918H273.18C273.18 256.267 272.762 253.56 270.524 251.321C268.285 249.083 265.578 248.665 263.927 248.665V264.665ZM257.18 257.987L257.493 294.31L273.493 294.172L273.18 257.849L257.18 257.987ZM257.493 294.241C257.493 293.426 257.702 291.345 259.523 289.524C261.344 287.703 263.425 287.494 264.24 287.494V303.494C265.891 303.494 268.598 303.076 270.837 300.838C273.075 298.599 273.493 295.892 273.493 294.241H257.493ZM264.24 287.494H198.169V303.494H264.24V287.494ZM190.169 295.494V351.545H206.169V295.494H190.169ZM198.169 359.545H264.24V343.545H198.169V359.545ZM264.24 359.545C262.892 359.545 260.614 359.035 258.933 356.934C257.525 355.174 257.493 353.444 257.493 353.111H273.493C273.493 351.734 273.253 349.221 271.427 346.939C269.328 344.316 266.424 343.545 264.24 343.545V359.545ZM257.493 353.111V389.747H273.493V353.111H257.493ZM257.493 389.747C257.493 388.932 257.702 386.851 259.523 385.03C261.344 383.209 263.425 383 264.24 383V399C265.891 399 268.598 398.582 270.837 396.344C273.075 394.106 273.493 391.398 273.493 389.747H257.493ZM321.231 385.364L317.038 392.177L317.055 392.187L317.071 392.197L321.231 385.364ZM298.529 361.878L291.542 365.776L291.567 365.82L291.592 365.863L298.529 361.878ZM290.231 328.843L282.231 328.818L282.231 328.83V328.843H290.231ZM290.544 228.796L298.544 228.821L298.544 228.809V228.796H290.544ZM298.685 196.543L305.65 200.48L305.659 200.464L305.668 200.447L298.685 196.543ZM321.074 173.215L325.267 180.028L325.278 180.022L325.288 180.015L321.074 173.215ZM384.797 172.901L380.592 179.707L380.609 179.717L380.626 179.728L384.797 172.901ZM407.187 196.23L400.218 200.159L400.243 200.203L400.268 200.247L407.187 196.23ZM336.261 348.101L330.364 353.506L330.393 353.537L330.421 353.568L336.261 348.101ZM370.237 347.318L376.344 352.485L376.368 352.457L376.392 352.428L370.237 347.318ZM407.5 361.722L414.405 365.762L414.43 365.719L414.455 365.675L407.5 361.722ZM384.797 385.364L389.024 392.156L389.051 392.139L389.078 392.122L384.797 385.364ZM353.014 386.131C342.848 386.131 333.7 383.588 325.391 378.53L317.071 392.197C327.967 398.829 340.008 402.131 353.014 402.131V386.131ZM325.424 378.55C317.079 373.415 310.448 366.566 305.466 357.893L291.592 365.863C297.883 376.814 306.386 385.622 317.038 392.177L325.424 378.55ZM305.515 357.981C300.692 349.335 298.231 339.68 298.231 328.843H282.231C282.231 342.221 285.301 354.59 291.542 365.776L305.515 357.981ZM298.231 328.868L298.544 228.821L282.544 228.771L282.231 328.818L298.231 328.868ZM298.544 228.796C298.544 218.164 300.954 208.788 305.65 200.48L291.721 192.607C285.561 203.504 282.544 215.629 282.544 228.796H298.544ZM305.668 200.447C310.427 191.936 316.928 185.159 325.267 180.028L316.882 166.401C306.224 172.96 297.799 181.736 291.703 192.639L305.668 200.447ZM325.288 180.015C333.58 174.878 342.758 172.29 353.014 172.29V156.29C339.89 156.29 327.775 159.652 316.861 166.414L325.288 180.015ZM353.014 172.29C363.566 172.29 372.678 174.817 380.592 179.707L389.003 166.096C378.337 159.505 366.261 156.29 353.014 156.29V172.29ZM380.626 179.728C388.828 184.74 395.34 191.507 400.218 200.159L414.155 192.301C407.969 181.33 399.555 172.544 388.969 166.075L380.626 179.728ZM400.268 200.247C405.147 208.649 407.641 218.102 407.641 228.796H423.641C423.641 215.483 420.499 203.225 414.105 192.213L400.268 200.247ZM407.641 228.796V243.513H423.641V228.796H407.641ZM407.641 243.513C407.641 242.698 407.851 240.617 409.671 238.796C411.492 236.975 413.573 236.766 414.389 236.766V252.766C416.039 252.766 418.747 252.348 420.985 250.11C423.223 247.871 423.641 245.164 423.641 243.513H407.641ZM414.389 236.766H378.378V252.766H414.389V236.766ZM378.378 236.766C379.194 236.766 381.275 236.975 383.096 238.796C384.916 240.617 385.126 242.698 385.126 243.513H369.126C369.126 245.164 369.544 247.871 371.782 250.11C374.02 252.348 376.727 252.766 378.378 252.766V236.766ZM385.126 243.513V228.796H369.126V243.513H385.126ZM385.126 228.796C385.126 219.796 382.146 211.767 376.189 205.133L364.284 215.823C367.512 219.417 369.126 223.601 369.126 228.796H385.126ZM376.189 205.133C370.075 198.324 362.169 194.806 353.014 194.806V210.806C357.638 210.806 361.213 212.402 364.284 215.823L376.189 205.133ZM353.014 194.806C343.351 194.806 334.999 198.242 329.171 205.714L341.787 215.554C344.1 212.589 347.438 210.806 353.014 210.806V194.806ZM329.171 205.714C323.956 212.399 321.372 220.203 321.372 228.796H337.372C337.372 223.612 338.86 219.307 341.787 215.554L329.171 205.714ZM321.372 228.796V328.843H337.372V228.796H321.372ZM321.372 328.843C321.372 338.348 324.214 346.797 330.364 353.506L342.159 342.695C339.123 339.383 337.372 334.995 337.372 328.843H321.372ZM330.421 353.568C336.489 360.049 344.171 363.459 353.014 363.459V347.459C348.706 347.459 345.219 345.963 342.102 342.633L330.421 353.568ZM353.014 363.459C362.342 363.459 370.287 359.643 376.344 352.485L364.13 342.15C361.001 345.848 357.465 347.459 353.014 347.459V363.459ZM376.392 352.428C382.1 345.552 385.126 337.611 385.126 328.843H369.126C369.126 333.644 367.559 338.019 364.081 342.208L376.392 352.428ZM385.126 328.843V313.969H369.126V328.843H385.126ZM385.126 313.969C385.126 314.784 384.916 316.866 383.096 318.686C381.275 320.507 379.194 320.716 378.378 320.716V304.716C376.727 304.716 374.02 305.134 371.782 307.373C369.544 309.611 369.126 312.318 369.126 313.969H385.126ZM378.378 320.716H414.702V304.716H378.378V320.716ZM414.702 320.716C413.886 320.716 411.805 320.507 409.984 318.686C408.164 316.866 407.954 314.784 407.954 313.969H423.954C423.954 312.318 423.536 309.611 421.298 307.373C419.06 305.134 416.352 304.716 414.702 304.716V320.716ZM407.954 313.969V328.843H423.954V313.969H407.954ZM407.954 328.843C407.954 339.536 405.46 349.121 400.545 357.769L414.455 365.675C420.812 354.49 423.954 342.157 423.954 328.843H407.954ZM400.595 357.682C395.484 366.416 388.807 373.355 380.517 378.605L389.078 392.122C399.576 385.473 408.034 376.651 414.405 365.762L400.595 357.682ZM380.571 378.571C372.53 383.574 363.418 386.131 353.014 386.131V402.131C366.2 402.131 378.277 398.843 389.024 392.156L380.571 378.571ZM439.283 389.434L431.283 389.412L431.283 389.423V389.434H439.283ZM439.909 169.144L447.909 169.167L447.909 169.155V169.144H439.909ZM561.092 199.048L554.246 203.186L554.262 203.214L554.279 203.241L561.092 199.048ZM557.804 268.721L551.368 263.97L551.331 264.02L551.295 264.071L557.804 268.721ZM549.193 278.428L544.196 272.181L537.566 277.485L543.254 283.788L549.193 278.428ZM566.572 323.676H558.572V323.695L558.572 323.714L566.572 323.676ZM566.885 389.434H574.885V389.415L574.885 389.396L566.885 389.434ZM478.425 295.181V287.181H470.451L470.425 295.154L478.425 295.181ZM478.112 389.434L470.112 389.408L470.112 389.421V389.434H478.112ZM478.425 206.25V198.25H470.425V206.25H478.425ZM478.425 256.665H470.425V264.665H478.425V256.665ZM523.516 249.306L518.037 243.477L518.007 243.505L517.978 243.533L523.516 249.306ZM523.829 213.766L518.172 219.422L518.202 219.452L518.232 219.482L523.829 213.766ZM476.859 383H440.535V399H476.859V383ZM440.535 383C441.884 383 444.162 383.51 445.843 385.611C447.251 387.371 447.283 389.101 447.283 389.434H431.283C431.283 390.811 431.523 393.324 433.349 395.606C435.448 398.229 438.352 399 440.535 399V383ZM447.283 389.457L447.909 169.167L431.909 169.121L431.283 389.412L447.283 389.457ZM447.909 169.144C447.909 169.959 447.7 172.041 445.879 173.861C444.058 175.682 441.977 175.891 441.162 175.891V159.891C439.511 159.891 436.804 160.309 434.565 162.548C432.327 164.786 431.909 167.493 431.909 169.144H447.909ZM441.162 175.891H505.981V159.891H441.162V175.891ZM505.981 175.891C516.203 175.891 525.457 178.36 533.903 183.264L541.937 169.428C530.97 163.059 518.93 159.891 505.981 159.891V175.891ZM533.903 183.264C542.463 188.234 549.208 194.851 554.246 203.186L567.939 194.91C561.495 184.249 552.792 175.731 541.937 169.428L533.903 183.264ZM554.279 203.241C559.289 211.382 561.86 220.661 561.86 231.301H577.86C577.86 217.935 574.586 205.711 567.906 194.855L554.279 203.241ZM561.86 231.301C561.86 238.308 560.787 244.432 558.774 249.772L573.745 255.417C576.533 248.023 577.86 239.951 577.86 231.301H561.86ZM558.774 249.772C556.571 255.614 554.074 260.303 551.368 263.97L564.241 273.472C568.006 268.371 571.146 262.309 573.745 255.417L558.774 249.772ZM551.295 264.071C548.364 268.174 545.989 270.747 544.196 272.181L554.191 284.675C557.617 281.934 560.982 278.036 564.314 273.371L551.295 264.071ZM543.254 283.788C553.511 295.153 558.572 308.325 558.572 323.676H574.572C574.572 304.373 568.048 287.38 555.132 273.068L543.254 283.788ZM558.572 323.714L558.885 389.472L574.885 389.396L574.572 323.638L558.572 323.714ZM558.885 389.434C558.885 388.723 559.069 386.72 560.837 384.952C562.606 383.183 564.608 383 565.32 383V399C567.075 399 569.86 398.556 572.151 396.265C574.441 393.975 574.885 391.189 574.885 389.434H558.885ZM565.32 383H528.996V399H565.32V383ZM528.996 383C529.348 383 531.07 383.025 532.857 384.365C535.076 386.03 535.743 388.422 535.743 390.061H519.743C519.743 392.326 520.62 395.188 523.257 397.165C525.461 398.818 527.809 399 528.996 399V383ZM535.743 390.061V323.676H519.743V390.061H535.743ZM535.743 323.676C535.743 313.853 532.207 305.192 525.365 298.086L513.839 309.184C517.853 313.352 519.743 318.051 519.743 323.676H535.743ZM525.365 298.086C518.406 290.86 509.634 287.181 499.561 287.181V303.181C505.354 303.181 509.943 305.138 513.839 309.184L525.365 298.086ZM499.561 287.181H478.425V303.181H499.561V287.181ZM470.425 295.154L470.112 389.408L486.112 389.461L486.425 295.207L470.425 295.154ZM470.112 389.434C470.112 389.101 470.143 387.371 471.552 385.611C473.233 383.51 475.511 383 476.859 383V399C479.042 399 481.947 398.229 484.045 395.606C485.871 393.324 486.112 390.811 486.112 389.434H470.112ZM505.981 198.25H478.425V214.25H505.981V198.25ZM470.425 206.25V256.665H486.425V206.25H470.425ZM478.425 264.665H505.981V248.665H478.425V264.665ZM505.981 264.665C514.79 264.665 522.577 261.293 529.054 255.08L517.978 243.533C514.226 247.132 510.323 248.665 505.981 248.665V264.665ZM528.995 255.135C535.806 248.733 539.345 240.629 539.345 231.301H523.345C523.345 236.168 521.664 240.068 518.037 243.477L528.995 255.135ZM539.345 231.301C539.345 222.286 535.916 214.404 529.426 208.05L518.232 219.482C521.763 222.939 523.345 226.747 523.345 231.301H539.345ZM529.486 208.109C523.024 201.646 515.058 198.25 505.981 198.25V214.25C510.681 214.25 514.615 215.865 518.172 219.422L529.486 208.109ZM593.972 389.434L585.972 389.423V389.434H593.972ZM594.285 169.144L602.285 169.155V169.144H594.285ZM632.8 206.563V198.563H624.8V206.563H632.8ZM632.8 256.665H624.8V264.665H632.8V256.665ZM699.811 257.918H691.811V257.952L691.811 257.987L699.811 257.918ZM700.124 294.241H708.124V294.207L708.124 294.172L700.124 294.241ZM632.8 295.494V287.494H624.8V295.494H632.8ZM632.8 351.545H624.8V359.545H632.8V351.545ZM698.872 383H595.224V399H698.872V383ZM595.224 383C596.572 383 598.851 383.51 600.532 385.611C601.94 387.371 601.972 389.101 601.972 389.434H585.972C585.972 390.811 586.212 393.324 588.038 395.606C590.136 398.229 593.041 399 595.224 399V383ZM601.972 389.446L602.285 169.155L586.285 169.132L585.972 389.423L601.972 389.446ZM602.285 169.144C602.285 169.959 602.075 172.041 600.255 173.861C598.434 175.682 596.353 175.891 595.537 175.891V159.891C593.887 159.891 591.179 160.309 588.941 162.548C586.703 164.786 586.285 167.493 586.285 169.144H602.285ZM595.537 175.891H698.559V159.891H595.537V175.891ZM698.559 175.891C697.21 175.891 694.932 175.382 693.251 173.28C691.843 171.52 691.811 169.79 691.811 169.457H707.811C707.811 168.08 707.571 165.567 705.745 163.285C703.646 160.662 700.742 159.891 698.559 159.891V175.891ZM691.811 169.457V205.311H707.811V169.457H691.811ZM691.811 205.311C691.811 204.495 692.02 202.414 693.841 200.593C695.662 198.773 697.743 198.563 698.559 198.563V214.563C700.209 214.563 702.917 214.145 705.155 211.907C707.393 209.669 707.811 206.962 707.811 205.311H691.811ZM698.559 198.563H632.8V214.563H698.559V198.563ZM624.8 206.563V256.665H640.8V206.563H624.8ZM632.8 264.665H698.559V248.665H632.8V264.665ZM698.559 264.665C697.743 264.665 695.662 264.456 693.841 262.635C692.02 260.814 691.811 258.733 691.811 257.918H707.811C707.811 256.267 707.393 253.56 705.155 251.321C702.917 249.083 700.209 248.665 698.559 248.665V264.665ZM691.811 257.987L692.125 294.31L708.124 294.172L707.811 257.849L691.811 257.987ZM692.124 294.241C692.124 293.426 692.334 291.345 694.154 289.524C695.975 287.703 698.056 287.494 698.872 287.494V303.494C700.522 303.494 703.23 303.076 705.468 300.838C707.706 298.599 708.124 295.892 708.124 294.241H692.124ZM698.872 287.494H632.8V303.494H698.872V287.494ZM624.8 295.494V351.545H640.8V295.494H624.8ZM632.8 359.545H698.872V343.545H632.8V359.545ZM698.872 359.545C697.524 359.545 695.245 359.035 693.564 356.934C692.156 355.174 692.124 353.444 692.124 353.111H708.124C708.124 351.734 707.884 349.221 706.058 346.939C703.96 344.316 701.055 343.545 698.872 343.545V359.545ZM692.124 353.111V389.747H708.124V353.111H692.124ZM692.124 389.747C692.124 388.932 692.334 386.851 694.154 385.03C695.975 383.209 698.056 383 698.872 383V399C700.522 399 703.23 398.582 705.468 396.344C707.706 394.106 708.124 391.398 708.124 389.747H692.124ZM759.463 206.563H767.463V198.563H759.463V206.563ZM716.251 204.998L708.251 204.928L708.251 204.963V204.998H716.251ZM716.564 169.144L724.564 169.214L724.564 169.179V169.144H716.564ZM797.979 206.563V198.563H789.965L789.979 206.577L797.979 206.563ZM798.292 389.434H806.292L806.292 389.421L798.292 389.434ZM797.04 383H760.872V399H797.04V383ZM760.872 383C761.866 383 764.014 383.315 765.762 385.257C767.366 387.039 767.463 388.919 767.463 389.434H751.463C751.463 390.993 751.796 393.657 753.869 395.96C756.087 398.424 758.939 399 760.872 399V383ZM767.463 389.434V206.563H751.463V389.434H767.463ZM759.463 198.563H717.816V214.563H759.463V198.563ZM717.816 198.563C718.528 198.563 720.531 198.747 722.299 200.515C724.068 202.284 724.251 204.287 724.251 204.998H708.251C708.251 206.753 708.695 209.539 710.985 211.829C713.276 214.119 716.061 214.563 717.816 214.563V198.563ZM724.25 205.068L724.564 169.214L708.564 169.074L708.251 204.928L724.25 205.068ZM724.564 169.144C724.564 169.959 724.355 172.041 722.534 173.861C720.713 175.682 718.632 175.891 717.816 175.891V159.891C716.166 159.891 713.458 160.309 711.22 162.548C708.982 164.786 708.564 167.493 708.564 169.144H724.564ZM717.816 175.891H839.626V159.891H717.816V175.891ZM839.626 175.891C839.468 175.891 837.905 175.905 836.212 174.674C835.28 173.996 834.486 173.06 833.968 171.929C833.47 170.842 833.348 169.846 833.348 169.144H849.348C849.348 166.68 848.363 163.727 845.623 161.735C843.356 160.086 840.932 159.891 839.626 159.891V175.891ZM833.348 169.144V204.998H849.348V169.144H833.348ZM833.348 204.998C833.348 204.665 833.38 202.935 834.788 201.175C836.469 199.073 838.748 198.563 840.096 198.563V214.563C842.279 214.563 845.183 213.793 847.282 211.17C849.108 208.887 849.348 206.374 849.348 204.998H833.348ZM840.096 198.563H797.979V214.563H840.096V198.563ZM789.979 206.577L790.292 389.448L806.292 389.421L805.979 206.55L789.979 206.577ZM790.292 389.434C790.292 389.101 790.324 387.371 791.732 385.611C793.413 383.51 795.691 383 797.04 383V399C799.223 399 802.127 398.229 804.226 395.606C806.052 393.324 806.292 390.811 806.292 389.434H790.292Z" fill="#1646A0" mask="url(#path-4-outside-1_32_69)"/>
<mask id="path-6-outside-2_32_69" maskUnits="userSpaceOnUse" x="350" y="449" width="759" height="240" fill="black">
<rect fill="white" x="350" y="449" width="759" height="240"/>
<path d="M437.102 681H398.273C397.334 681 396.812 680.478 396.708 679.434L358.818 459.144C358.609 458.309 358.923 457.891 359.758 457.891H395.768C396.603 457.891 397.125 458.309 397.334 459.144L417.844 603.969L438.981 459.144C439.19 458.309 439.816 457.891 440.86 457.891H469.825C470.66 457.891 471.181 458.309 471.39 459.144L492.214 603.969L513.037 459.144C513.246 458.309 513.768 457.891 514.603 457.891H550.3C551.344 457.891 551.762 458.309 551.553 459.144L513.35 679.434C513.246 679.852 512.933 680.217 512.411 680.53L511.785 681H472.956C472.33 681 471.808 680.478 471.39 679.434L454.951 564.357L438.668 679.434C438.563 680.478 438.041 681 437.102 681ZM857.799 681H821.475C820.64 681 820.223 680.478 820.223 679.434L820.849 459.144C820.849 458.309 821.266 457.891 822.101 457.891H886.92C898.506 457.891 909.153 460.71 918.86 466.346C928.567 471.982 936.291 479.55 942.032 489.048C947.877 498.547 950.8 509.298 950.8 521.301C950.8 529.13 949.6 536.227 947.199 542.594C944.798 548.961 941.98 554.337 938.744 558.721C935.613 563.105 932.742 566.34 930.133 568.428C941.719 581.267 947.512 596.349 947.512 613.676L947.825 679.434C947.825 680.478 947.303 681 946.259 681H909.936C909.101 681 908.683 680.687 908.683 680.061V613.676C908.683 605.952 905.969 599.272 900.542 593.635C895.114 587.999 888.434 585.181 880.501 585.181H859.364L859.051 679.434C859.051 680.478 858.634 681 857.799 681ZM886.92 496.25H859.364V546.665H886.92C893.496 546.665 899.341 544.212 904.456 539.306C909.675 534.401 912.284 528.399 912.284 521.301C912.284 514.517 909.779 508.671 904.769 503.766C899.759 498.755 893.809 496.25 886.92 496.25ZM1033.94 680.687L976.477 681C975.433 681 974.911 680.478 974.911 679.434L975.538 459.144C975.538 458.309 975.955 457.891 976.79 457.891L1036.76 457.578C1048.65 457.265 1059.41 459.979 1069.01 465.72C1078.72 471.46 1086.44 479.237 1092.18 489.048C1098.03 498.755 1100.95 509.506 1100.95 521.301V613.363C1100.95 625.679 1097.97 636.952 1092.02 647.181C1085.97 657.306 1077.93 665.395 1067.91 671.449C1057.89 677.399 1046.57 680.478 1033.94 680.687ZM1036.76 495.937L1014.37 496.25L1014.05 641.545H1033.94C1041.87 641.545 1048.55 638.779 1053.98 633.247C1059.41 627.715 1062.12 621.087 1062.12 613.363V520.988C1062.12 514.203 1059.61 508.306 1054.6 503.296C1049.59 498.181 1043.64 495.728 1036.76 495.937Z"/>
</mask>
<path d="M437.102 681H398.273C397.334 681 396.812 680.478 396.708 679.434L358.818 459.144C358.609 458.309 358.923 457.891 359.758 457.891H395.768C396.603 457.891 397.125 458.309 397.334 459.144L417.844 603.969L438.981 459.144C439.19 458.309 439.816 457.891 440.86 457.891H469.825C470.66 457.891 471.181 458.309 471.39 459.144L492.214 603.969L513.037 459.144C513.246 458.309 513.768 457.891 514.603 457.891H550.3C551.344 457.891 551.762 458.309 551.553 459.144L513.35 679.434C513.246 679.852 512.933 680.217 512.411 680.53L511.785 681H472.956C472.33 681 471.808 680.478 471.39 679.434L454.951 564.357L438.668 679.434C438.563 680.478 438.041 681 437.102 681ZM857.799 681H821.475C820.64 681 820.223 680.478 820.223 679.434L820.849 459.144C820.849 458.309 821.266 457.891 822.101 457.891H886.92C898.506 457.891 909.153 460.71 918.86 466.346C928.567 471.982 936.291 479.55 942.032 489.048C947.877 498.547 950.8 509.298 950.8 521.301C950.8 529.13 949.6 536.227 947.199 542.594C944.798 548.961 941.98 554.337 938.744 558.721C935.613 563.105 932.742 566.34 930.133 568.428C941.719 581.267 947.512 596.349 947.512 613.676L947.825 679.434C947.825 680.478 947.303 681 946.259 681H909.936C909.101 681 908.683 680.687 908.683 680.061V613.676C908.683 605.952 905.969 599.272 900.542 593.635C895.114 587.999 888.434 585.181 880.501 585.181H859.364L859.051 679.434C859.051 680.478 858.634 681 857.799 681ZM886.92 496.25H859.364V546.665H886.92C893.496 546.665 899.341 544.212 904.456 539.306C909.675 534.401 912.284 528.399 912.284 521.301C912.284 514.517 909.779 508.671 904.769 503.766C899.759 498.755 893.809 496.25 886.92 496.25ZM1033.94 680.687L976.477 681C975.433 681 974.911 680.478 974.911 679.434L975.538 459.144C975.538 458.309 975.955 457.891 976.79 457.891L1036.76 457.578C1048.65 457.265 1059.41 459.979 1069.01 465.72C1078.72 471.46 1086.44 479.237 1092.18 489.048C1098.03 498.755 1100.95 509.506 1100.95 521.301V613.363C1100.95 625.679 1097.97 636.952 1092.02 647.181C1085.97 657.306 1077.93 665.395 1067.91 671.449C1057.89 677.399 1046.57 680.478 1033.94 680.687ZM1036.76 495.937L1014.37 496.25L1014.05 641.545H1033.94C1041.87 641.545 1048.55 638.779 1053.98 633.247C1059.41 627.715 1062.12 621.087 1062.12 613.363V520.988C1062.12 514.203 1059.61 508.306 1054.6 503.296C1049.59 498.181 1043.64 495.728 1036.76 495.937Z" fill="white"/>
<path d="M396.708 679.434L404.668 678.638L404.64 678.357L404.592 678.078L396.708 679.434ZM358.818 459.144L366.702 457.788L366.652 457.493L366.579 457.204L358.818 459.144ZM397.334 459.144L405.255 458.022L405.196 457.609L405.095 457.204L397.334 459.144ZM417.844 603.969L409.923 605.091L425.76 605.124L417.844 603.969ZM438.981 459.144L431.22 457.204L431.122 457.592L431.065 457.989L438.981 459.144ZM471.39 459.144L479.309 458.005L479.251 457.6L479.151 457.204L471.39 459.144ZM492.214 603.969L484.295 605.107H500.132L492.214 603.969ZM513.037 459.144L505.276 457.204L505.177 457.6L505.119 458.005L513.037 459.144ZM551.553 459.144L543.792 457.204L543.721 457.488L543.67 457.777L551.553 459.144ZM513.35 679.434L521.111 681.375L521.183 681.09L521.233 680.801L513.35 679.434ZM512.411 680.53L508.295 673.67L507.941 673.883L507.611 674.13L512.411 680.53ZM511.785 681V689H514.451L516.585 687.4L511.785 681ZM471.39 679.434L463.471 680.566L463.606 681.515L463.962 682.405L471.39 679.434ZM454.951 564.357L462.87 563.226L447.03 563.236L454.951 564.357ZM438.668 679.434L430.747 678.314L430.724 678.476L430.707 678.638L438.668 679.434ZM437.102 673H398.273V689H437.102V673ZM398.273 673C399.318 673 401.214 673.331 402.834 674.952C404.332 676.45 404.612 678.082 404.668 678.638L388.747 680.23C388.907 681.831 389.5 684.245 391.52 686.265C393.663 688.408 396.289 689 398.273 689V673ZM404.592 678.078L366.702 457.788L350.934 460.5L388.823 680.79L404.592 678.078ZM366.579 457.204C366.687 457.633 367.306 460.325 365.296 463.004C363.216 465.778 360.334 465.891 359.758 465.891V449.891C358.346 449.891 354.89 450.213 352.496 453.404C350.174 456.502 350.741 459.819 351.057 461.084L366.579 457.204ZM359.758 465.891H395.768V449.891H359.758V465.891ZM395.768 465.891C394.833 465.891 393.27 465.637 391.788 464.451C390.332 463.286 389.77 461.873 389.573 461.084L405.095 457.204C404.689 455.579 403.762 453.54 401.783 451.957C399.78 450.355 397.539 449.891 395.768 449.891V465.891ZM389.413 460.266L409.923 605.091L425.765 602.847L405.255 458.022L389.413 460.266ZM425.76 605.124L446.897 460.299L431.065 457.989L409.928 602.813L425.76 605.124ZM446.742 461.084C446.438 462.301 445.625 463.807 444.045 464.861C442.626 465.807 441.327 465.891 440.86 465.891V449.891C439.349 449.891 437.214 450.185 435.169 451.548C432.962 453.019 431.733 455.152 431.22 457.204L446.742 461.084ZM440.86 465.891H469.825V449.891H440.86V465.891ZM469.825 465.891C468.889 465.891 467.326 465.637 465.845 464.451C464.388 463.286 463.826 461.873 463.629 461.084L479.151 457.204C478.745 455.579 477.818 453.54 475.84 451.957C473.836 450.355 471.595 449.891 469.825 449.891V465.891ZM463.472 460.282L484.295 605.107L500.132 602.83L479.309 458.005L463.472 460.282ZM500.132 605.107L520.956 460.282L505.119 458.005L484.295 602.83L500.132 605.107ZM520.798 461.084C520.601 461.873 520.039 463.286 518.583 464.451C517.101 465.637 515.538 465.891 514.603 465.891V449.891C512.832 449.891 510.591 450.355 508.588 451.957C506.609 453.54 505.682 455.579 505.276 457.204L520.798 461.084ZM514.603 465.891H550.3V449.891H514.603V465.891ZM550.3 465.891C550.201 465.891 547.834 465.956 545.739 463.861C543.137 461.258 543.555 458.149 543.792 457.204L559.314 461.084C559.759 459.303 560.073 455.568 557.053 452.548C554.541 450.035 551.444 449.891 550.3 449.891V465.891ZM543.67 457.777L505.468 678.067L521.233 680.801L559.435 460.511L543.67 457.777ZM505.589 677.494C506.181 675.127 507.759 673.992 508.295 673.67L516.527 687.39C518.106 686.443 520.311 684.576 521.111 681.375L505.589 677.494ZM507.611 674.13L506.985 674.6L516.585 687.4L517.211 686.93L507.611 674.13ZM511.785 673H472.956V689H511.785V673ZM472.956 673C475.14 673 476.801 674.001 477.752 674.952C478.55 675.75 478.814 676.454 478.818 676.463L463.962 682.405C464.563 683.906 466.966 689 472.956 689V673ZM479.31 678.303L462.87 563.226L447.031 565.489L463.471 680.566L479.31 678.303ZM447.03 563.236L430.747 678.314L446.589 680.555L462.872 565.478L447.03 563.236ZM430.707 678.638C430.763 678.082 431.043 676.45 432.541 674.952C434.161 673.331 436.058 673 437.102 673V689C439.086 689 441.712 688.408 443.855 686.265C445.875 684.245 446.468 681.831 446.628 680.23L430.707 678.638ZM820.223 679.434L812.223 679.412L812.223 679.423V679.434H820.223ZM820.849 459.144L828.849 459.167L828.849 459.155V459.144H820.849ZM942.032 489.048L935.186 493.186L935.202 493.214L935.219 493.241L942.032 489.048ZM938.744 558.721L932.308 553.97L932.271 554.02L932.234 554.071L938.744 558.721ZM930.133 568.428L925.135 562.181L918.506 567.485L924.194 573.788L930.133 568.428ZM947.512 613.676H939.512V613.695L939.512 613.714L947.512 613.676ZM947.825 679.434H955.825V679.415L955.825 679.396L947.825 679.434ZM859.364 585.181V577.181H851.391L851.365 585.154L859.364 585.181ZM859.051 679.434L851.051 679.408L851.051 679.421V679.434H859.051ZM859.364 496.25V488.25H851.364V496.25H859.364ZM859.364 546.665H851.364V554.665H859.364V546.665ZM904.456 539.306L898.977 533.477L898.947 533.505L898.918 533.533L904.456 539.306ZM904.769 503.766L899.112 509.422L899.142 509.452L899.172 509.482L904.769 503.766ZM857.799 673H821.475V689H857.799V673ZM821.475 673C822.823 673 825.102 673.51 826.783 675.611C828.191 677.371 828.223 679.101 828.223 679.434H812.223C812.223 680.811 812.463 683.324 814.289 685.606C816.387 688.229 819.292 689 821.475 689V673ZM828.223 679.457L828.849 459.167L812.849 459.121L812.223 679.412L828.223 679.457ZM828.849 459.144C828.849 459.959 828.64 462.041 826.819 463.861C824.998 465.682 822.917 465.891 822.101 465.891V449.891C820.451 449.891 817.743 450.309 815.505 452.548C813.267 454.786 812.849 457.493 812.849 459.144H828.849ZM822.101 465.891H886.92V449.891H822.101V465.891ZM886.92 465.891C897.143 465.891 906.396 468.36 914.843 473.264L922.877 459.428C911.909 453.059 899.87 449.891 886.92 449.891V465.891ZM914.843 473.264C923.402 478.234 930.148 484.851 935.186 493.186L948.879 484.91C942.435 474.249 933.732 465.731 922.877 459.428L914.843 473.264ZM935.219 493.241C940.229 501.382 942.8 510.661 942.8 521.301H958.8C958.8 507.935 955.526 495.711 948.845 484.855L935.219 493.241ZM942.8 521.301C942.8 528.308 941.727 534.432 939.713 539.772L954.684 545.417C957.472 538.023 958.8 529.951 958.8 521.301H942.8ZM939.713 539.772C937.511 545.614 935.014 550.303 932.308 553.97L945.181 563.472C948.946 558.371 952.086 552.309 954.684 545.417L939.713 539.772ZM932.234 554.071C929.304 558.174 926.928 560.747 925.135 562.181L935.131 574.675C938.557 571.934 941.922 568.036 945.254 563.371L932.234 554.071ZM924.194 573.788C934.45 585.153 939.512 598.325 939.512 613.676H955.512C955.512 594.373 948.988 577.38 936.072 563.068L924.194 573.788ZM939.512 613.714L939.825 679.472L955.825 679.396L955.512 613.638L939.512 613.714ZM939.825 679.434C939.825 678.723 940.008 676.72 941.777 674.952C943.545 673.183 945.548 673 946.259 673V689C948.015 689 950.8 688.556 953.091 686.265C955.381 683.975 955.825 681.189 955.825 679.434H939.825ZM946.259 673H909.936V689H946.259V673ZM909.936 673C910.288 673 912.01 673.025 913.796 674.365C916.016 676.03 916.683 678.422 916.683 680.061H900.683C900.683 682.326 901.56 685.188 904.196 687.165C906.4 688.818 908.749 689 909.936 689V673ZM916.683 680.061V613.676H900.683V680.061H916.683ZM916.683 613.676C916.683 603.853 913.147 595.192 906.304 588.086L894.779 599.184C898.792 603.352 900.683 608.051 900.683 613.676H916.683ZM906.304 588.086C899.345 580.86 890.574 577.181 880.501 577.181V593.181C886.294 593.181 890.883 595.138 894.779 599.184L906.304 588.086ZM880.501 577.181H859.364V593.181H880.501V577.181ZM851.365 585.154L851.051 679.408L867.051 679.461L867.364 585.207L851.365 585.154ZM851.051 679.434C851.051 679.101 851.083 677.371 852.491 675.611C854.172 673.51 856.451 673 857.799 673V689C859.982 689 862.887 688.229 864.985 685.606C866.811 683.324 867.051 680.811 867.051 679.434H851.051ZM886.92 488.25H859.364V504.25H886.92V488.25ZM851.364 496.25V546.665H867.364V496.25H851.364ZM859.364 554.665H886.92V538.665H859.364V554.665ZM886.92 554.665C895.73 554.665 903.517 551.293 909.994 545.08L898.918 533.533C895.166 537.132 891.262 538.665 886.92 538.665V554.665ZM909.935 545.135C916.746 538.733 920.284 530.629 920.284 521.301H904.284C904.284 526.168 902.604 530.068 898.977 533.477L909.935 545.135ZM920.284 521.301C920.284 512.286 916.855 504.404 910.366 498.05L899.172 509.482C902.703 512.939 904.284 516.747 904.284 521.301H920.284ZM910.426 498.109C903.963 491.646 895.998 488.25 886.92 488.25V504.25C891.621 504.25 895.554 505.865 899.112 509.422L910.426 498.109ZM1033.94 680.687L1033.98 688.687L1034.03 688.687L1034.07 688.686L1033.94 680.687ZM976.477 681V689H976.499L976.521 689L976.477 681ZM974.911 679.434L966.911 679.412L966.911 679.423V679.434H974.911ZM975.538 459.144L983.538 459.167L983.538 459.155V459.144H975.538ZM976.79 457.891V465.891H976.811L976.832 465.891L976.79 457.891ZM1036.76 457.578L1036.8 465.578L1036.88 465.578L1036.97 465.575L1036.76 457.578ZM1069.01 465.72L1064.9 472.586L1064.92 472.596L1064.94 472.606L1069.01 465.72ZM1092.18 489.048L1085.28 493.088L1085.3 493.132L1085.33 493.175L1092.18 489.048ZM1092.02 647.181L1098.89 651.287L1098.91 651.245L1098.94 651.204L1092.02 647.181ZM1067.91 671.449L1072 678.328L1072.02 678.313L1072.05 678.297L1067.91 671.449ZM1036.76 495.937L1036.87 503.936L1036.93 503.936L1037 503.934L1036.76 495.937ZM1014.37 496.25L1014.25 488.251L1006.38 488.361L1006.37 496.233L1014.37 496.25ZM1014.05 641.545L1006.05 641.528L1006.04 649.545H1014.05V641.545ZM1054.6 503.296L1048.89 508.894L1048.92 508.924L1048.95 508.953L1054.6 503.296ZM1033.89 672.687L976.433 673L976.521 689L1033.98 688.687L1033.89 672.687ZM976.477 673C977.188 673 979.191 673.183 980.96 674.952C982.728 676.72 982.911 678.723 982.911 679.434H966.911C966.911 681.189 967.356 683.975 969.646 686.265C971.936 688.556 974.722 689 976.477 689V673ZM982.911 679.457L983.538 459.167L967.538 459.121L966.911 679.412L982.911 679.457ZM983.538 459.144C983.538 459.959 983.328 462.041 981.508 463.861C979.687 465.682 977.606 465.891 976.79 465.891V449.891C975.139 449.891 972.432 450.309 970.194 452.548C967.956 454.786 967.538 457.493 967.538 459.144H983.538ZM976.832 465.891L1036.8 465.578L1036.71 449.578L976.748 449.891L976.832 465.891ZM1036.97 465.575C1047.45 465.3 1056.69 467.674 1064.9 472.586L1073.11 458.853C1062.12 452.283 1049.86 449.231 1036.55 449.581L1036.97 465.575ZM1064.94 472.606C1073.46 477.648 1080.22 484.441 1085.28 493.088L1099.09 485.008C1092.66 474.032 1083.97 465.273 1073.08 458.834L1064.94 472.606ZM1085.33 493.175C1090.39 501.584 1092.95 510.898 1092.95 521.301H1108.95C1108.95 508.114 1105.66 495.927 1099.03 484.921L1085.33 493.175ZM1092.95 521.301V613.363H1108.95V521.301H1092.95ZM1092.95 613.363C1092.95 624.327 1090.32 634.203 1085.11 643.159L1098.94 651.204C1105.63 639.702 1108.95 627.032 1108.95 613.363H1092.95ZM1085.16 643.076C1079.77 652.086 1072.67 659.23 1063.78 664.602L1072.05 678.297C1083.2 671.561 1092.17 662.526 1098.89 651.287L1085.16 643.076ZM1063.83 664.571C1055.1 669.75 1045.16 672.5 1033.81 672.688L1034.07 688.686C1047.97 688.456 1060.68 685.048 1072 678.328L1063.83 664.571ZM1036.64 487.938L1014.25 488.251L1014.48 504.25L1036.87 503.936L1036.64 487.938ZM1006.37 496.233L1006.05 641.528L1022.05 641.562L1022.37 496.268L1006.37 496.233ZM1014.05 649.545H1033.94V633.545H1014.05V649.545ZM1033.94 649.545C1043.96 649.545 1052.72 645.955 1059.69 638.85L1048.27 627.644C1044.38 631.603 1039.78 633.545 1033.94 633.545V649.545ZM1059.69 638.85C1066.58 631.828 1070.12 623.19 1070.12 613.363H1054.12C1054.12 618.984 1052.23 623.602 1048.27 627.644L1059.69 638.85ZM1070.12 613.363V520.988H1054.12V613.363H1070.12ZM1070.12 520.988C1070.12 511.979 1066.7 504.075 1060.26 497.639L1048.95 508.953C1052.53 512.537 1054.12 516.428 1054.12 520.988H1070.12ZM1060.32 497.698C1053.81 491.057 1045.73 487.662 1036.51 487.941L1037 503.934C1041.56 503.795 1045.37 505.306 1048.89 508.894L1060.32 497.698Z" fill="#1646A0" mask="url(#path-6-outside-2_32_69)"/>
<path d="M237.262 625.776L270.852 614.162C271.937 613.787 272.343 613.205 272.07 612.415L266.391 595.99C263.595 587.901 258.923 580.46 252.378 573.667C245.798 566.775 238.128 561.2 229.366 556.94C225.25 554.939 221.715 553.18 218.76 551.661C215.673 550.078 213.149 548.687 211.188 547.487C207.167 545.122 204.285 542.695 202.541 540.206C200.763 537.618 199.208 534.4 197.878 530.553C195.422 523.45 195.497 516.798 198.101 510.596C200.706 504.395 205.264 500.168 211.775 497.917C218.187 495.7 224.382 496.209 230.359 499.443C236.337 502.678 240.554 507.846 243.01 514.949L250.633 536.997C250.906 537.786 251.437 538.044 252.226 537.771L286.555 525.902C287.345 525.629 287.603 525.098 287.33 524.308L279.707 502.261C275.784 490.916 269.507 481.545 260.876 474.148C252.342 466.717 242.649 461.841 231.796 459.519C220.909 457.098 210.04 457.764 199.189 461.516C188.239 465.302 179.213 471.46 172.112 479.989C165.011 488.518 160.467 498.373 158.479 509.552C156.358 520.667 157.258 531.897 161.181 543.241C163.398 549.653 166.118 555.284 169.341 560.134C172.594 564.752 177.116 569.207 182.908 573.5C188.665 577.694 196.725 582.638 207.087 588.332C213.892 591.723 219.079 595.065 222.647 598.359C226.117 601.687 228.688 605.768 230.359 610.602L235.373 625.104C235.646 625.893 236.276 626.117 237.262 625.776ZM256.55 681.561L290.14 669.948C291.225 669.572 291.597 668.892 291.256 667.905L279.591 634.167C279.318 633.378 278.639 633.171 277.554 633.546L243.964 645.16C242.978 645.501 242.621 646.066 242.894 646.855L254.559 680.593C254.9 681.58 255.564 681.902 256.55 681.561Z" fill="#ECFA00"/>
<path d="M984.523 351.016L957.214 359.852C956.332 360.137 955.787 359.959 955.579 359.318L951.259 345.964C949.131 339.387 948.527 332.318 949.447 324.755C950.341 317.112 952.578 309.788 956.159 302.782C957.841 299.491 959.266 296.638 960.433 294.222C961.655 291.701 962.607 289.576 963.289 287.85C964.732 284.37 965.412 281.404 965.327 278.951C965.216 276.417 964.654 273.587 963.642 270.459C961.774 264.684 958.493 260.43 953.798 257.696C949.104 254.962 944.11 254.451 938.817 256.164C933.604 257.851 929.856 261.19 927.572 266.181C925.289 271.173 925.081 276.556 926.95 282.33L932.749 300.256C932.957 300.897 932.74 301.322 932.098 301.529L904.188 310.56C903.546 310.767 903.121 310.55 902.914 309.909L897.114 291.983C894.13 282.76 893.624 273.665 895.596 264.699C897.488 255.759 901.369 247.902 907.24 241.13C913.086 234.277 920.42 229.424 929.242 226.569C938.144 223.689 946.958 223.274 955.684 225.323C964.41 227.373 972.13 231.52 978.846 237.764C985.616 243.902 990.493 251.582 993.478 260.806C995.164 266.019 996.147 270.973 996.425 275.667C996.571 280.227 995.82 285.298 994.171 290.882C992.497 296.385 989.701 303.491 985.786 312.2C983.045 317.694 981.324 322.371 980.623 326.23C980.003 330.063 980.329 333.945 981.6 337.875L985.415 349.665C985.622 350.306 985.325 350.757 984.523 351.016ZM999.197 396.371L971.888 405.206C971.006 405.492 970.435 405.234 970.176 404.431L961.301 377.002C961.093 376.361 961.431 375.897 962.313 375.612L989.622 366.776C990.424 366.517 990.929 366.708 991.136 367.349L1000.01 394.778C1000.27 395.581 999.999 396.111 999.197 396.371Z" fill="#ECFA00"/>
<path d="M80.728 525.03L97.824 512.501C98.3763 512.096 98.5053 511.693 98.2109 511.291L92.0843 502.931C89.0671 498.814 85.0958 495.396 80.1706 492.677C75.2086 489.908 69.8564 488.081 64.1141 487.196C61.417 486.78 59.0929 486.4 57.142 486.054C55.1041 485.696 53.421 485.347 52.0925 485.009C49.3854 484.369 47.3158 483.493 45.8839 482.382C44.4151 481.22 42.9632 479.66 41.5282 477.702C38.8788 474.087 37.7506 470.283 38.1433 466.291C38.5361 462.299 40.3893 459.088 43.7031 456.66C46.9666 454.268 50.5861 453.468 54.5615 454.259C58.5369 455.05 61.8492 457.253 64.4986 460.868L72.7225 472.089C73.0169 472.491 73.3649 472.545 73.7666 472.25L91.2391 459.445C91.6408 459.151 91.6944 458.803 91.4001 458.401L83.1761 447.179C78.9446 441.405 73.7186 437.171 67.4983 434.475C61.3282 431.742 54.9468 430.669 48.354 431.256C41.7245 431.793 35.6482 434.085 30.1253 438.133C24.5521 442.217 20.493 447.314 17.9478 453.424C15.4026 459.534 14.5473 465.949 15.3819 472.669C16.1295 479.376 18.619 485.616 22.8506 491.39C25.2424 494.654 27.7832 497.384 30.4731 499.58C33.1396 501.639 36.5007 503.381 40.5562 504.808C44.5749 506.185 50.0376 507.584 56.9443 509.005C61.4184 509.739 64.962 510.731 67.5753 511.98C70.1383 513.265 72.3213 515.138 74.1243 517.599L79.5334 524.979C79.8277 525.381 80.2259 525.398 80.728 525.03ZM101.536 553.423L118.632 540.894C119.185 540.489 119.277 540.035 118.909 539.533L106.324 522.362C106.03 521.96 105.607 521.962 105.054 522.367L87.9585 534.896C87.4564 535.264 87.3525 535.649 87.6469 536.05L100.231 553.222C100.599 553.724 101.034 553.791 101.536 553.423Z" fill="white"/>
</svg>
